<svg id="Layer_3" height="512" viewBox="0 0 64 64" width="512" xmlns="http://www.w3.org/2000/svg" data-name="Layer 3"><path d="m19.1 38h-14.1l-3 3 8.17 8.17q4.385-5.652 8.93-11.17z" fill="#3b5892"/><path d="m14.829 53.829 8.171 8.171 3-3v-14.1q-5.517 4.549-11.171 8.934z" fill="#3b5892"/><path d="m10.17 49.17-8.17-8.17 3-3 7.805 7.805q-1.324 1.677-2.635 3.365z" fill="#78a0d4"/><path d="m26 59-7.8-7.8q-1.677 1.325-3.366 2.634l8.166 8.166z" fill="#78a0d4"/><path d="m46.852 26.661 14.148 32.339-3 3-23.92-23.92q6.488-5.593 12.772-11.419z" fill="#3b5892"/><path d="m52 56-17.92-17.92q1.611-1.387 3.209-2.791l16.3 16.3a2 2 0 0 1 0 2.828z" fill="#c0dafc"/><path d="m53.693 42.307 3.479-3.479a2.828 2.828 0 0 0 .828-2 2.828 2.828 0 0 0 -2.828-2.828 2.828 2.828 0 0 0 -2 .828l-1.911 1.911 2.439 5.567z" fill="#f0ae42"/><path d="m57.348 50.652 3.031-3.031a2.12 2.12 0 0 0 .621-1.5 2.122 2.122 0 0 0 -2.121-2.121 2.12 2.12 0 0 0 -1.5.621l-1.857 1.857z" fill="#f0ae42"/><path d="m37.339 17.148-32.339-14.148-3 3 23.92 23.92q5.594-6.488 11.419-12.772z" fill="#3b5892"/><path d="m8 12 17.92 17.92q1.387-1.611 2.791-3.209l-16.3-16.3a2 2 0 0 0 -2.828 0z" fill="#c0dafc"/><path d="m21.693 10.307 3.479-3.479a2.828 2.828 0 0 1 2-.828 2.828 2.828 0 0 1 2.828 2.828 2.828 2.828 0 0 1 -.828 2l-1.911 1.911-5.567-2.439z" fill="#f0ae42"/><path d="m13.348 6.652 3.031-3.031a2.12 2.12 0 0 1 1.5-.621 2.122 2.122 0 0 1 2.121 2.121 2.12 2.12 0 0 1 -.621 1.5l-1.857 1.857z" fill="#f0ae42"/><path d="m2.842 58.864 1.158-1.557a478.5 478.5 0 0 1 45.924-53.231h.005a7.072 7.072 0 0 1 5-2.071 7.071 7.071 0 0 1 7.071 7.066 7.072 7.072 0 0 1 -2.071 5 478.478 478.478 0 0 1 -53.242 45.935l-1.552 1.151a1.639 1.639 0 0 1 -2.135-.157 1.639 1.639 0 0 1 -.158-2.136z" fill="#4c6cb5"/><path d="m5.135 57.157 1.552-1.151a478.478 478.478 0 0 0 53.242-45.935 7.062 7.062 0 0 0 1.779-3 7.068 7.068 0 0 0 -11.779-3h-.005a478.5 478.5 0 0 0 -45.924 53.236l-.1.133a1.613 1.613 0 0 0 1.235-.283z" fill="#5e87ca"/><rect fill="#e2e7f6" height="8.201" rx="2.05" transform="matrix(.707 -.707 .707 .707 9.245 41.32)" width="4.101" x="52.45" y="5.399"/><path d="m55.207 5.894a3.121 3.121 0 0 0 -4.313 0 3.048 3.048 0 0 0 0 4.313l2.9 2.9a3.05 3.05 0 1 0 4.313-4.313zm1.485 5.8a1.048 1.048 0 0 1 -1.485 0l-2.9-2.9a1.05 1.05 0 0 1 1.485-1.485l2.9 2.9a1.05 1.05 0 0 1 0 1.483z"/><path d="m62 46.121a3.121 3.121 0 0 0 -5.328-2.207l-.822.821-.965-2.206 2.994-2.994a3.828 3.828 0 0 0 -5.414-5.414l-.875.879-3.539-8.088q6.411-5.958 12.585-12.13a8.071 8.071 0 1 0 -11.419-11.413q-6.166 6.167-12.125 12.58l-8.092-3.539.875-.875a3.828 3.828 0 0 0 -5.414-5.414l-2.99 2.994-2.206-.965.821-.822a3.121 3.121 0 0 0 -4.414-4.414l-2.549 2.549-7.723-3.379a1 1 0 0 0 -1.107.209l-3 3a1 1 0 0 0 0 1.414l23.272 23.272q-2.991 3.481-5.913 7.021h-13.652a1 1 0 0 0 -.707.293l-3 3a1 1 0 0 0 0 1.414l7.551 7.551q-2.862 3.7-5.651 7.454l-1.154 1.557a2.64 2.64 0 0 0 3.692 3.691l1.551-1.151q3.755-2.785 7.458-5.655l7.553 7.553a1 1 0 0 0 1.414 0l3-3a1 1 0 0 0 .293-.707v-13.653q3.537-2.923 7.02-5.913l23.273 23.273a1 1 0 0 0 1.414 0l3-3a1 1 0 0 0 .209-1.107l-3.379-7.723 2.549-2.549a3.142 3.142 0 0 0 .914-2.207zm-8.121-10.586a1.829 1.829 0 0 1 2.586 2.586l-2.441 2.441-1.574-3.6zm-28-28a1.829 1.829 0 0 1 2.586 2.586l-1.429 1.429-3.6-1.574zm-8.793-3.207a1.121 1.121 0 0 1 1.586 1.586l-1.372 1.375-2.206-.966zm-11.861-.139 30.442 13.319q-3.535 3.839-6.986 7.759l-15.56-15.56a3 3 0 0 0 -4.242 0l-.879.879-4.586-4.586zm4.189 7.811.879-.879a1 1 0 0 1 1.414 0l15.651 15.651c-.493.564-.993 1.122-1.483 1.689zm3.315 32.315-5.315-5.315h9.606q-2.163 2.646-4.291 5.315zm-9.315-3.315 1.586-1.586 6.485 6.486q-.7.886-1.4 1.776zm2.677 18.2-1.551 1.154a.639.639 0 0 1 -.894-.894l1.154-1.56a479.181 479.181 0 0 1 45.836-53.122 6.071 6.071 0 0 1 8.586 8.586 479.145 479.145 0 0 1 -53.131 45.836zm16.909 1.386-6.676-6.676q.891-.694 1.776-1.4l6.486 6.49zm2-4-5.316-5.316q2.675-2.124 5.316-4.291zm12.227-19.945 15.652 15.652a1 1 0 0 1 0 1.414l-.879.879-16.461-16.461c.561-.491 1.124-.991 1.688-1.484zm20.773 23.945-4.586-4.586.879-.879a3 3 0 0 0 0-4.242l-15.561-15.561q3.918-3.453 7.76-6.986l13.319 30.443zm1.672-13.672-1.995 1.995-.966-2.209 1.375-1.375a1.121 1.121 0 0 1 1.586 1.586z"/></svg>